PathFileType	4	(X/Y/Z)	C:/Users/beibeiliu/ov580/test_trc/capture2\sequence.4_training_dense_right.trc
DataRate	CameraRate	NumFrames	NumMarkers	Units	OrigDataRate	OrigDataStartFrame	OrigNumFrames
120	120	22	19	mm	120	267	355
Frame#	Time	ThumbCMC			ThumbMCP			ThumbIP			ThumbTip			IndexMCP			IndexPIP			IndexTip			MiddleMCP			MiddlePIP			MiddleTip			RingMCP			RingPIP			RingTip			PinkyMCP			PinkyPIP			PinkyTip			BackHand1			BackHand2			BackHand3	
		X0	Y0	Z0	X1	Y1	Z1	X2	Y2	Z2	X3	Y3	Z3	X4	Y4	Z4	X5	Y5	Z5	X6	Y6	Z6	X7	Y7	Z7	X8	Y8	Z8	X9	Y9	Z9	X10	Y10	Z10	X11	Y11	Z11	X12	Y12	Z12	X13	Y13	Z13	X14	Y14	Z14	X15	Y15	Z15	X16	Y16	Z16	X17	Y17	Z17	X18	Y18	Z18	
266	2.21667	158.504	50.0654	-17.4581	131.522	49.928	-35.2214	118.698	47.7405	-59.9111	111.838	29.1852	-82.4172	175.53	44.0582	-84.7426	168.952	53.7335	-112.026	166.417	52.2824	-134.121	147.141	24.7482	-88.0774	118.884	29.7779	-76.0945	130.137	30.8548	-42.1212	140.401	11.0623	-77.9028	116.989	12.0032	-58.4761	136.758	17.7231	-29.6366	142.073	-7.48613	-68.3751	120.033	1.27429	-46.8246	144.56	12.073	-25.4174	184.869	-5.95642	-44.3507	188.411	-5.97386	-14.8563	189.757	25.1419	-25.6372	
267	2.225	162.334	47.5399	-12.9182	138.312	54.3026	-37.9363	126.653	54.1115	-63.4362	124.441	33.2126	-81.5014	182.087	52.5768	-83.2129	178.15	53.4461	-108.355	177.272	56.0531	-137.388	155.574	31.7445	-88.7057	125.417	32.2911	-80.6641	129.81	31.4062	-45.6916	145.081	12.9157	-80.3576	122.58	21.2281	-60.6233	141.674	22.821	-31.2927	145.351	-4.03055	-70.1237	123.919	4.83366	-51.2529	148.763	11.9039	-27.1114	187.619	-3.49376	-46.2481	192.103	-5.03789	-13.7397	192.924	28.7315	-27.4856	
268	2.23333	165.544	52.3236	-9.15954	146.546	62.3241	-39.567	141.233	59.2942	-63.5155	142.888	32.0344	-82.5636	188.944	52.108	-84.7011	186.98	61.9094	-107.414	187.258	62.9339	-132.087	161.59	33.1622	-88.9963	132.029	39.2022	-87.6606	126.975	32.4613	-48.763	149.47	18.1824	-81.4757	126.097	25.1746	-62.5828	142.246	25.7525	-34.293	147.844	-2.34951	-72.2274	128.021	10.8185	-50.9883	150.295	11.7934	-25.8247	189.639	0.849433	-44.7916	190.136	-5.49219	-10.2004	194.743	31.143	-19.4886	
269	2.24167	167.408	51.321	-11.7188	151.655	62.9096	-38.1031	145.933	63.9399	-65.6467	147.497	38.3129	-81.6279	195.001	59.5765	-78.0411	195.71	64.4174	-105.117	196.98	65.9785	-127.479	170.571	40.2745	-86.0552	135.457	41.2321	-87.5004	130.783	36.2195	-50.2607	157.813	19.3967	-80.9561	130.836	27.9489	-67.4816	142.893	28.1	-36.2239	151.017	0.994393	-74.281	131.853	13.2648	-54.3333	151.979	13.3957	-28.6608	194.106	3.26382	-42.9778	193.799	-1.32836	-11.9722	197.89	33.4452	-19.127	
270	2.25	169.356	59.7929	-10.5793	147.402	68.6106	-35.6787	141.901	67.6788	-61.1801	143.332	48.428	-82.5791	202.665	62.119	-75.7003	203.751	71.17	-101.076	207.869	75.8194	-121.533	177.166	47.565	-85.0398	145.148	49.3412	-85.5115	144.466	45.3235	-45.9733	162.905	27.8136	-81.4289	137.232	36.4365	-64.8292	150.209	32.2953	-34.0441	159.096	8.07187	-75.6411	136.047	17.8016	-58.2756	154.348	21.2743	-32.2757	195.621	6.79536	-37.8987	195.449	2.45038	-6.44272	202.123	33.4636	-14.3503	
271	2.25833	169.076	61.8655	-8.93872	146.814	71.0403	-37.2134	139.939	73.463	-63.7022	145.714	53.3106	-86.4175	206.915	70.5997	-70.1885	209.945	81.498	-93.2255	217.116	87.0311	-118.896	182.638	52.8571	-82.0244	150.723	55.6019	-83.5158	150.314	47.0484	-47.5277	171.242	33.8792	-80.3043	141.315	38.1482	-67.4723	151.019	36.4681	-36.1301	165.716	16.7991	-75.4567	141.108	25.7151	-57.7221	155.795	26.5227	-31.215	202.029	13.1265	-39.8779	193.158	1.34849	-5.99079	204.661	38.8074	-12.3863	
272	2.26667	170.025	64.7341	-10.605	150.542	71.3897	-38.024	146.478	73.8735	-65.9549	148.584	59.3866	-85.5672	210.919	77.934	-63.6838	215.665	86.9306	-87.937	222.907	95.431	-107.388	186.211	56.784	-82.8266	154.427	61.8349	-80.5176	157.063	51.6832	-42.7259	177.496	41.4287	-78.5449	144.574	44.4994	-67.4899	152.892	41.305	-37.6031	167.002	23.4283	-76.9173	144.293	30.412	-58.887	160.079	26.9084	-30.692	201.961	17.9592	-37.0199	197.367	7.35261	-6.95628	203.703	38.3409	-11.4432	
273	2.275	169.116	67.6689	-6.16592	153.11	74.2187	-38.4019	145.712	80.1986	-63.2967	153.536	64.8741	-88.3794	214.542	81.9179	-59.6509	219.359	94.8839	-80.2812	227.336	101.466	-102.905	192.291	61.8601	-78.1773	158.189	67.3204	-78.7126	156.549	57.1255	-45.6996	178.123	45.8945	-79.0141	150.01	49.0531	-68.3061	157.642	46.4803	-34.818	173.736	25.8283	-75.8756	149.921	37.6375	-62.5397	158.73	33.0922	-32.0895	205.557	22.6635	-30.777	196.249	13.3127	-6.84362	204.921	45.633	-11.1953	
274	2.28333	168.032	69.0105	-3.34871	152.047	77.921	-33.5973	150.116	85.2442	-66.7107	158.221	67.41	-85.282	217.531	90.88	-57.237	223.002	99.7872	-77.1439	232.966	111.228	-94.4131	193.869	71.5091	-76.3144	162.671	71.2325	-77.9815	158.43	62.5005	-42.7607	181.34	51.3015	-79.044	155.942	55.9126	-70.0378	158.596	47.0177	-34.789	179.142	29.3982	-74.2344	152.186	38.8774	-60.677	162.401	33.4652	-31.1601	209.17	28.0552	-29.194	197.343	12.2688	-0.649266	203.623	48.8521	-7.17093	
275	2.29167	168.263	72.7049	-4.69093	152.365	84.0688	-36.9038	155.123	85.3339	-63.891	162.924	72.7218	-85.8599	218.797	90.821	-51.224	226.919	106.598	-71.9564	239.426	117.181	-91.775	199.701	71.8284	-73.3257	167.702	75.7731	-77.3892	160.452	64.2234	-46.2925	190.415	52.8553	-74.059	158.488	55.3476	-69.0535	159.263	52.6962	-37.1531	181.504	37.0354	-73.5618	158.316	45.3026	-59.4199	163.762	39.3181	-29.7098	210.319	30.2497	-31.0993	198.637	20.2665	1.12696	202.761	51.6365	-2.89082	
276	2.3	167.118	74.421	-1.5822	152.678	87.0379	-34.8771	153.467	92.6062	-63.3133	166.862	76.2992	-86.2085	220.86	95.6136	-46.5247	229.088	106.976	-68.172	242.892	121.123	-86.8699	204.005	78.4161	-66.7666	171.378	78.4696	-76.7761	162.302	65.601	-46.5149	191.059	60.8297	-73.7951	161.249	61.6921	-66.3638	160.456	54.4386	-37.4373	188.025	43.7724	-69.9587	161.89	49.1515	-58.6679	165.911	42.3998	-27.7829	212.101	36.7007	-26.8774	197.145	20.1002	1.86622	204.018	55.9086	-1.43095	
277	2.30833	170.878	77.9701	-5.73038	158.24	87.9505	-35.499	158.73	94.5516	-64.757	168.125	79.3322	-81.3761	224.314	99.5478	-47.0192	230.947	113.507	-63.8463	247.003	122.265	-85.7531	206.874	79.8302	-67.0919	176.921	82.7377	-77.5537	166.447	67.2862	-41.748	194.477	64.7258	-71.4642	165.607	62.8764	-69.6096	163.98	59.791	-33.518	191.055	43.4452	-68.6917	162.17	48.0403	-58.0874	170.466	46.8427	-28.1899	213.651	37.5689	-24.6229	199.028	24.466	4.65358	205.381	62.2568	3.15683	
278	2.31667	169.608	82.562	-3.69498	160.132	90.3831	-36.7752	160.689	96.1269	-64.4165	173.74	79.3198	-84.2845	225.643	103.93	-43.1523	234.266	116.725	-63.1519	246.332	123.044	-79.9838	208.069	80.8071	-67.4068	179.662	86.8315	-76.5882	165.552	73.9996	-43.8811	197.064	67.6483	-70.3754	167.553	66.9691	-68.1168	165.211	59.1433	-35.544	194.398	45.5432	-68.1712	164.691	49.2335	-61.4882	170.787	46.4005	-25.5726	214.5	39.8831	-23.4321	199.906	23.4829	4.61572	205.208	64.1575	3.98821	
279	2.325	170.334	82.7854	-2.14024	158.6	93.0374	-35.3831	160.062	99.9746	-63.0877	173.988	84.1482	-82.5303	227.845	103.034	-43.9025	236.508	117.716	-62.9663	247.973	129.1	-74.9727	210.714	83.651	-64.8937	179.358	86.8799	-75.3262	166.585	75.4929	-45.2684	200.571	69.0186	-68.8948	169.483	68.9919	-68.0693	164.526	60.2149	-37.1186	195.007	45.5339	-68.9352	166.787	51.1451	-60.2114	170.801	49.9314	-26.1256	214.818	37.3986	-19.8976	201.195	29.6456	5.40691	207.152	63.2285	5.38207	
280	2.33333	168.756	84.2243	-1.48595	159.477	92.9956	-34.342	165.598	97.928	-65.9319	177.422	83.8527	-85.6709	228.176	103.057	-43.0369	238.303	121.212	-61.4467	250.458	132.451	-76.949	211.128	87.1383	-67.7705	183.589	87.4277	-76.5246	168.896	74.8567	-42.4745	200.225	71.7282	-68.8025	172.347	72.4585	-68.6681	166.534	59.8732	-35.2099	198.496	49.2351	-66.6376	167.233	53.2829	-59.097	173.15	51.3638	-26.2671	217.38	43.2654	-21.5881	200.986	29.6031	4.05997	206.479	66.8168	3.2093	
281	2.34167	170.593	84.9396	-2.82765	161.565	94.5103	-37.689	167.446	97.6415	-64.8051	178.624	85.4184	-85.7182	227.744	104.076	-41.0463	236.718	121.67	-58.7719	249.995	128.575	-75.3362	213.897	86.0686	-64.1846	181.043	92.0816	-73.7362	169.521	74.8823	-43.8563	203.587	66.7832	-67.1122	171.264	71.6291	-66.7107	168.623	63.1837	-33.4126	198.365	50.4527	-65.9854	169.205	55.1466	-59.6483	172.156	47.2868	-24.6032	215.356	43.9454	-20.423	199.541	31.8871	4.74509	205.749	67.3214	5.47722	
282	2.35	170.028	86.0178	-3.41625	159.298	96.444	-37.5528	164.15	98.9696	-63.3346	178.176	84.4971	-83.2882	227.975	109.041	-42.016	237.808	118.102	-60.5337	251.78	127.806	-77.6989	212.457	86.1444	-66.9414	181.393	89.2194	-74.193	169.844	76.3234	-41.9775	200.672	70.2464	-69.4444	171.803	70.3632	-66.5543	167.588	63.5168	-34.7757	199.236	49.9265	-66.1302	168.032	55.0646	-58.0868	171.563	51.659	-25.972	217.178	41.1065	-19.3231	198.004	31.3682	7.52954	206.833	68.2104	5.80712	
283	2.35833	168.941	83.504	-4.26736	160.029	92.8682	-39.3798	164.641	94.8196	-65.3235	178.525	79.6898	-82.0229	225.929	105.416	-39.7639	237.773	118.694	-62.8346	251.505	129.364	-77.4677	212.256	85.73	-62.9886	182.057	86.6986	-75.2312	168.94	73.6405	-43.6887	201.938	64.8769	-69.4365	169.995	67.7024	-67.2036	165.578	59.2719	-36.4118	198.259	46.2091	-67.2657	167.764	50.3132	-61.4665	170.179	48.8215	-30.3963	214.942	41.8398	-20.0511	198.188	27.0275	4.88784	204.67	65.7613	6.33571	
284	2.36667	167.525	80.3886	-4.32136	157.194	91.7944	-39.5055	160.146	95.1705	-63.7132	176.699	78.3375	-86.9232	223.082	104.471	-40.3462	234.502	118.405	-60.7132	248.639	129.308	-77.7048	210.139	85.23	-64.9228	178.875	87.2279	-75.877	166.448	75.3158	-42.8815	199.949	66.0826	-70.8201	170.301	65.2819	-70.3143	165.025	59.6224	-34.9364	194.993	50.0546	-66.5219	167.497	54.516	-58.7725	169.237	48.3839	-30.9079	213.686	39.3045	-21.965	197.296	27.0448	7.08466	203.607	61.0891	5.35643	
285	2.375	167.795	80.5648	-7.23223	157.057	87.8528	-39.9282	158.362	92.7501	-66.2538	173.196	75.6361	-84.4724	221.552	104.018	-43.3995	232.187	114.069	-65.0443	245.531	126.195	-79.6658	208.387	84.7125	-64.3961	176.932	85.8742	-76.6463	163.914	71.9924	-46.5897	196.733	63.7193	-72.1304	168.544	65.6054	-72.1231	162.484	55.301	-37.2016	192.114	46.5288	-70.2939	164.377	51.4222	-60.063	164.726	45.5018	-30.7894	213.306	41.8665	-18.8527	198.565	29.85	2.80247	200.474	63.5839	5.58259	
286	2.38333	165.743	79.1578	-9.5446	153.417	87.5751	-42.3828	154.906	90.504	-69.791	169.859	72.5631	-87.8221	219.901	99.931	-48.0121	228.167	112.122	-66.1721	242.072	122.731	-82.6884	204.858	80.7464	-71.6354	176.195	79.4923	-81.6711	162.156	72.32	-45.9493	194.607	62.7539	-74.3109	164.018	63.4738	-70.0968	160.633	57.287	-40.1819	192.219	42.1492	-70.1144	163.147	47.6284	-63.2633	165.397	43.7901	-28.9188	210.754	38.5951	-21.4965	195.645	28.1902	4.22591	200.785	65.8783	3.48754	
287	2.39167	161.527	80.3596	-7.34794	150.016	85.5056	-42.6127	152.272	88.7986	-70.0635	167.619	69.0349	-85.8705	217.42	98.9367	-49.5266	225.243	113.316	-68.691	241.344	119.988	-89.3106	203.073	80.638	-68.6734	173.497	79.0278	-83.2121	160.293	70.2299	-45.676	192.904	56.5972	-74.5681	160.616	60.3658	-70.3984	159.674	51.8638	-35.6869	187.47	40.3102	-72.3289	158.993	44.2891	-60.6751	162.144	44.1986	-33.8648	210.813	35.936	-22.7821	195.78	27.6446	0.472689	197.003	66.0512	0.978641	
